# xmcd
#
# Track frame offsets:
#  183
#  14185
#  26200
#  39165
#  50040
#  62648
#  76825
#  86938
#  102250
#  116343
#  136210
#  147613
#  161938
#  174088
#  188638
#  199735
#  212205
#  225688
#  244085
#  254258
#
# Disc length: 3528 seconds
#
# Revision: 5
# Processed by: cddbd v1.5.2PL0 Copyright (c) Steve Scherf et al.
# Submitted via: AltoMP3_Maker 3.0
#
DISCID=1e0dc614
DTITLE=Various Artist - Country Boys
DYEAR=1900
DGENRE=
TTITLE0=Country Boy
TTITLE1=Reuben James
TTITLE2=Crazy
TTITLE3=Rose Marie
TTITLE4=Folsom Prison Blues
TTITLE5=Desperately
TTITLE6=I Heard You Crying In Your Sleep
TTITLE7=Jambalaya (On The Bayou)
TTITLE8=Son Of Hickory Hollers Tramp
TTITLE9=Amazing Grace
TTITLE10=Night Life
TTITLE11=Red River Valley
TTITLE12=San Antonio Rose
TTITLE13=Another Place Another Time
TTITLE14=I Get Lonely In A Hurry
TTITLE15=Sweet Dreams
TTITLE16=Baby's Got Her Blue Jeans On
TTITLE17=I Just Had You On My Mind
TTITLE18=I've Got A Tiger By The Tail
TTITLE19=Wings Of A Dove
EXTD=
EXTT0=
EXTT1=
EXTT2=
EXTT3=
EXTT4=
EXTT5=
EXTT6=
EXTT7=
EXTT8=
EXTT9=
EXTT10=
EXTT11=
EXTT12=
EXTT13=
EXTT14=
EXTT15=
EXTT16=
EXTT17=
EXTT18=
EXTT19=
PLAYORDER=
